<svg xmlns="http://www.w3.org/2000/svg" viewBox="0 0 190.54 156.12"><defs><style>.cls-1{fill:#fff;fill-rule:evenodd;}</style></defs><title>资源 1</title><g id="图层_2" data-name="图层 2"><g id="图层_1-2" data-name="图层 1"><path class="cls-1" d="M184.86,20h-60.1L137.28,7.42a4.35,4.35,0,0,0-6.14-6.15l-16.61,16.6A4.33,4.33,0,0,0,113.39,20H77.14A4.33,4.33,0,0,0,76,17.87L59.4,1.27a4.35,4.35,0,0,0-6.15,6.15L65.78,20H5.68A5.67,5.67,0,0,0,0,25.62V150.45a5.67,5.67,0,0,0,5.68,5.67H184.86a5.68,5.68,0,0,0,5.68-5.67V25.62A5.68,5.68,0,0,0,184.86,20ZM90.16,147.16a1,1,0,0,1-2,0v-3.33a1,1,0,0,1,2,0Zm3,1.94a.87.87,0,0,1-.86.86h-.27a.87.87,0,0,1-.87-.86V142a.87.87,0,0,1,.87-.87h.27a.87.87,0,0,1,.86.87Zm3.12,1.63a1.07,1.07,0,0,1-2.13,0V140.27a1.07,1.07,0,1,1,2.13,0Zm3-1.63a.87.87,0,0,1-.87.86h-.27a.87.87,0,0,1-.87-.86V142a.87.87,0,0,1,.87-.87h.27a.87.87,0,0,1,.87.87Zm3-1.94a1,1,0,0,1-2,0v-3.33a1,1,0,0,1,2,0Zm64.25-15.92a4.1,4.1,0,0,1-4.1,4.1H28a4.09,4.09,0,0,1-4.09-4.1V44.82A4.09,4.09,0,0,1,28,40.73H162.52a4.1,4.1,0,0,1,4.1,4.09Z"/></g></g></svg>