<svg xmlns="http://www.w3.org/2000/svg" width="30" height="50" viewBox="0 0 30 50">
    <g fill="none" fill-rule="nonzero">
        <path fill="#F9BE03" d="M11.059 44.765H4c-1.235 0-2.176-1-2.176-2.177V35.53c0-1.235 1-2.176 2.176-2.176h7.059c1.235 0 2.176 1 2.176 2.176v7.06a2.171 2.171 0 0 1-2.176 2.176z"/>
        <path fill="#FE88A2" d="M22.235 18.118a6.301 6.301 0 0 1-6.294-6.294 6.301 6.301 0 0 1 6.294-6.295 6.301 6.301 0 0 1 6.294 6.295 6.301 6.301 0 0 1-6.294 6.294z"/>
        <path fill="#FF445C" d="M1 17.706a12.209 12.209 0 0 0 10.118 12.059c1.176.235 2.176-.647 2.176-1.824V7.471c0-1.236-1-2.06-2.176-1.824C5.353 6.647 1 11.647 1 17.706z"/>
        <path fill="#186CE8" d="M28.412 32.53a12.209 12.209 0 0 0-10.118-12.06c-1.176-.235-2.176.648-2.176 1.824v20.47c0 1.236 1 2.06 2.176 1.824 5.765-1 10.118-6.059 10.118-12.059z"/>
    </g>
</svg>
